<?xml version="1.0" standalone="no"?>
<!DOCTYPE svg PUBLIC "-//W3C//DTD SVG 20010904//EN"
 "http://www.w3.org/TR/2001/REC-SVG-20010904/DTD/svg10.dtd">
<svg version="1.0" xmlns="http://www.w3.org/2000/svg"
 width="140.000000pt" height="140.000000pt" viewBox="0 0 140.000000 140.000000"
 preserveAspectRatio="xMidYMid meet">
<metadata>
Created by potrace 1.14, written by Peter Selinger 2001-2017
</metadata>
<g transform="translate(0.000000,140.000000) scale(0.100000,-0.100000)"
fill="#000000" stroke="none">
<path d="M670 1380 c0 -13 -7 -20 -20 -20 -17 0 -20 -7 -20 -50 0 -43 -3 -50
-20 -50 -19 0 -20 -7 -20 -160 l0 -160 -30 0 c-29 0 -30 -1 -30 -50 0 -43 -3
-50 -20 -50 -13 0 -20 -7 -20 -20 0 -13 -7 -20 -20 -20 -17 0 -20 -7 -20 -50
0 -49 -1 -50 -30 -50 -29 0 -30 -1 -30 -50 0 -43 -3 -50 -20 -50 -19 0 -20 -7
-20 -90 0 -83 1 -90 20 -90 13 0 20 -7 20 -20 0 -18 7 -20 70 -20 l70 0 0 -30
c0 -27 3 -30 30 -30 l30 0 0 -110 c0 -103 1 -110 20 -110 16 0 20 -7 20 -30 0
-23 4 -30 20 -30 13 0 20 -7 20 -20 0 -16 7 -20 30 -20 23 0 30 4 30 20 0 13
7 20 20 20 16 0 20 7 20 30 0 23 4 30 20 30 19 0 20 7 20 110 l0 110 30 0 c27
0 30 3 30 30 l0 30 70 0 c63 0 70 2 70 20 0 13 7 20 20 20 19 0 20 7 20 90 0
83 -1 90 -20 90 -17 0 -20 7 -20 50 0 49 -1 50 -30 50 -29 0 -30 1 -30 50 0
43 -3 50 -20 50 -13 0 -20 7 -20 20 0 13 -7 20 -20 20 -17 0 -20 7 -20 50 0
49 -1 50 -30 50 l-30 0 0 160 c0 153 -1 160 -20 160 -17 0 -20 7 -20 50 0 43
-3 50 -20 50 -13 0 -20 7 -20 20 0 16 -7 20 -30 20 -23 0 -30 -4 -30 -20z"/>
</g>
</svg>
