<svg xmlns="http://www.w3.org/2000/svg" viewBox="0 -0.5 40 7" shape-rendering="crispEdges">
<metadata>Made with Pixels to Svg https://codepen.io/shshaw/pen/XbxvNj</metadata>
<path stroke="#ffffff" d="M3 0h2M8 0h2M18 0h2M23 0h2M28 0h2M33 0h2M38 0h2M2 1h2M7 1h2M17 1h2M22 1h2M27 1h2M32 1h2M37 1h2M1 2h2M6 2h2M16 2h2M21 2h2M26 2h2M31 2h2M36 2h2M0 3h2M5 3h2M15 3h2M20 3h2M25 3h2M30 3h2M35 3h2M1 4h2M6 4h2M16 4h2M21 4h2M26 4h2M31 4h2M36 4h2M2 5h2M7 5h2M17 5h2M22 5h2M27 5h2M32 5h2M37 5h2M3 6h2M8 6h2M18 6h2M23 6h2M28 6h2M33 6h2M38 6h2" />
<path stroke="#ffcd27" d="M13 0h2M12 1h2M11 2h2M10 3h2M11 4h2M12 5h2M13 6h2" />
</svg>