<svg xmlns="http://www.w3.org/2000/svg" viewBox="0 -0.5 13 16" shape-rendering="crispEdges">
<metadata>Made with Pixels to Svg https://codepen.io/shshaw/pen/XbxvNj</metadata>
<path stroke="#000000" d="M4 0h5M2 1h2M9 1h2M1 2h1M11 2h1M1 3h1M11 3h1M0 4h1M8 4h1M12 4h1M0 5h1M8 5h1M12 5h1M0 6h1M8 6h1M12 6h1M0 7h1M8 7h1M12 7h1M0 8h1M8 8h1M12 8h1M0 9h1M8 9h1M12 9h1M0 10h1M8 10h1M12 10h1M0 11h1M8 11h1M12 11h1M1 12h1M6 12h2M11 12h1M1 13h1M11 13h1M2 14h2M9 14h2M4 15h5" />
<path stroke="#ffffff" d="M4 1h5M2 2h2M2 3h1M5 3h3M1 4h1M5 4h1M1 5h1M5 5h1M1 6h1M5 6h1M1 7h1M5 7h1M1 8h1M5 8h1M1 9h1M5 9h1M1 10h1M5 10h1M1 11h1M5 11h1" />
<path stroke="#ffc107" d="M4 2h6M3 3h1M9 3h1M2 4h1M7 4h1M10 4h1M2 5h1M7 5h1M10 5h1M2 6h1M7 6h1M10 6h1M2 7h1M7 7h1M10 7h1M2 8h1M7 8h1M10 8h1M2 9h1M7 9h1M10 9h1M2 10h1M6 10h2M10 10h1M2 11h1M6 11h2M10 11h1M2 12h1M9 12h1M2 13h7" />
<path stroke="#ff9900" d="M10 2h1M10 3h1M11 4h1M11 5h1M11 6h1M11 7h1M11 8h1M11 9h1M11 10h1M11 11h1M10 12h1M9 13h2M4 14h5" />
<path stroke="#ffeb3b" d="M4 3h1M8 3h1M3 4h2M6 4h1M9 4h1M3 5h2M6 5h1M9 5h1M3 6h2M6 6h1M9 6h1M3 7h2M6 7h1M9 7h1M3 8h2M6 8h1M9 8h1M3 9h2M6 9h1M9 9h1M3 10h2M9 10h1M3 11h2M9 11h1M3 12h3M8 12h1" />
</svg>