<svg xmlns="http://www.w3.org/2000/svg" viewBox="0 -0.5 57 29" shapeRendering="crispEdges">
<metadata>Made with Pixels to Svg https://codepen.io/shshaw/pen/XbxvNj</metadata>
<path stroke="#ffcd27" d="M1 0h55M0 1h2M55 1h2M0 2h1M2 2h53M56 2h1M0 3h1M2 3h7M10 3h7M18 3h25M44 3h1M49 3h1M53 3h2M56 3h1M0 4h1M2 4h6M19 4h31M53 4h2M56 4h1M0 5h1M2 5h3M6 5h3M10 5h7M18 5h32M53 5h2M56 5h1M0 6h1M2 6h2M8 6h1M10 6h2M15 6h2M18 6h37M56 6h1M0 7h1M2 7h3M6 7h6M13 7h1M15 7h40M56 7h1M0 8h1M2 8h3M6 8h5M12 8h3M16 8h7M25 8h2M30 8h2M36 8h2M40 8h2M47 8h1M52 8h3M56 8h1M0 9h1M2 9h3M6 9h4M11 9h5M17 9h5M23 9h2M26 9h1M28 9h2M31 9h1M33 9h4M38 9h2M41 9h3M45 9h3M49 9h6M56 9h1M0 10h1M2 10h3M6 10h4M11 10h2M14 10h2M17 10h5M23 10h4M30 10h2M35 10h2M41 10h3M45 10h3M51 10h4M56 10h1M0 11h1M2 11h3M6 11h4M11 11h2M14 11h2M17 11h5M23 11h2M26 11h1M28 11h1M30 11h2M33 11h4M38 11h2M41 11h3M45 11h3M49 11h6M56 11h1M0 12h1M2 12h3M6 12h4M11 12h5M17 12h6M25 12h2M28 12h2M31 12h1M36 12h1M38 12h2M41 12h3M45 12h3M52 12h3M56 12h1M0 13h1M2 13h3M6 13h4M11 13h5M17 13h38M56 13h1M0 14h1M2 14h3M6 14h4M11 14h5M17 14h38M56 14h1M0 15h1M2 15h2M8 15h2M11 15h5M17 15h16M35 15h3M40 15h2M43 15h3M47 15h1M52 15h3M56 15h1M0 16h1M2 16h3M6 16h3M10 16h7M18 16h14M33 16h4M38 16h2M41 16h1M44 16h1M47 16h1M49 16h6M56 16h1M0 17h1M2 17h3M6 17h2M9 17h9M19 17h2M23 17h9M33 17h1M36 17h1M41 17h1M43 17h1M45 17h1M47 17h1M51 17h4M56 17h1M0 18h1M2 18h3M6 18h1M8 18h11M20 18h2M23 18h9M33 18h2M36 18h1M38 18h2M41 18h1M43 18h3M47 18h1M49 18h6M56 18h1M0 19h1M2 19h3M6 19h2M11 19h5M19 19h3M23 19h10M35 19h2M38 19h2M41 19h1M43 19h3M47 19h1M52 19h3M56 19h1M0 20h1M2 20h3M6 20h5M12 20h3M16 20h5M23 20h7M31 20h22M54 20h1M56 20h1M0 21h1M2 21h2M8 21h4M15 21h15M31 21h22M54 21h1M56 21h1M0 22h1M2 22h3M6 22h4M11 22h5M17 22h12M54 22h1M56 22h1M0 23h1M2 23h8M11 23h5M17 23h13M31 23h22M54 23h1M56 23h1M0 24h1M2 24h7M18 24h37M56 24h1M0 25h1M2 25h8M11 25h5M17 25h38M56 25h1M0 26h1M2 26h53M56 26h1M0 27h2M55 27h2M1 28h55" />
</svg>