<svg xmlns="http://www.w3.org/2000/svg" viewBox="0 -0.5 38 14" shape-rendering="crispEdges">
<metadata>Made with Pixels to Svg https://codepen.io/shshaw/pen/XbxvNj</metadata>
<path stroke="#ffffff" d="M1 0h1M6 0h1M11 0h1M16 0h1M21 0h1M26 0h1M0 1h3M5 1h3M10 1h3M15 1h3M20 1h3M25 1h3M0 2h3M5 2h3M10 2h3M15 2h3M20 2h3M25 2h3M0 3h3M5 3h3M10 3h3M15 3h3M20 3h3M25 3h3M0 4h3M5 4h3M10 4h3M15 4h3M20 4h3M25 4h3M0 5h3M5 5h3M10 5h3M15 5h3M20 5h3M25 5h3M0 6h3M5 6h3M10 6h3M15 6h3M20 6h3M25 6h3M0 7h3M5 7h3M10 7h3M15 7h3M20 7h3M25 7h3M0 8h3M5 8h3M10 8h3M15 8h3M20 8h3M25 8h3M0 9h3M5 9h3M10 9h3M15 9h3M20 9h3M25 9h3M0 10h3M5 10h3M10 10h3M15 10h3M20 10h3M25 10h3M0 11h3M5 11h3M10 11h3M15 11h3M20 11h3M25 11h3M0 12h3M5 12h3M10 12h3M15 12h3M20 12h3M25 12h3M1 13h1M6 13h1M11 13h1M16 13h1M21 13h1M26 13h1" />
<path stroke="#595959" d="M31 0h1M36 0h1M30 1h3M35 1h3M30 2h3M35 2h3M30 3h3M35 3h3M30 4h3M35 4h3M30 5h3M35 5h3M30 6h3M35 6h3M30 7h3M35 7h3M30 8h3M35 8h3M30 9h3M35 9h3M30 10h3M35 10h3M30 11h3M35 11h3M30 12h3M35 12h3M31 13h1M36 13h1" />
</svg>