<svg xmlns="http://www.w3.org/2000/svg" viewBox="0 -0.5 109 15" shapeRendering="crispEdges">
<metadata>Made with Pixels to Svg https://codepen.io/shshaw/pen/XbxvNj</metadata>
<path stroke="#ffffff" d="M105 0h3M108 1h1M3 2h104M108 2h1M2 3h1M106 3h1M108 3h1M2 4h1M25 4h2M64 4h2M106 4h1M2 5h1M25 5h2M64 5h2M106 5h1M2 6h1M7 6h2M16 6h2M19 6h2M25 6h2M37 6h2M56 6h2M64 6h2M106 6h1M2 7h1M7 7h2M16 7h2M19 7h2M22 7h2M25 7h2M37 7h2M56 7h2M64 7h2M79 7h2M106 7h1M2 8h1M7 8h2M16 8h2M19 8h2M22 8h2M25 8h2M37 8h2M56 8h2M59 8h2M64 8h2M67 8h2M70 8h2M79 8h2M103 8h2M106 8h1M2 9h1M7 9h2M10 9h2M16 9h2M19 9h2M22 9h2M25 9h2M28 9h2M37 9h2M56 9h2M59 9h2M64 9h2M67 9h2M70 9h2M79 9h2M88 9h2M103 9h2M106 9h1M2 10h1M7 10h2M10 10h2M16 10h2M19 10h2M22 10h2M25 10h2M28 10h2M37 10h2M40 10h2M44 10h2M53 10h2M56 10h2M59 10h2M64 10h2M67 10h2M70 10h2M79 10h2M88 10h2M103 10h2M106 10h1M0 11h1M2 11h1M7 11h2M10 11h2M16 11h2M19 11h2M22 11h2M25 11h2M28 11h2M37 11h2M40 11h2M44 11h2M47 11h2M53 11h2M56 11h2M59 11h2M64 11h2M67 11h2M70 11h2M79 11h2M85 11h2M88 11h2M94 11h2M97 11h2M103 11h2M106 11h1M0 12h1M2 12h104M0 13h1M1 14h3" />
<path stroke="#ffcd27" d="M82 4h2M100 4h2M82 5h2M100 5h2M34 6h2M76 6h2M82 6h2M100 6h2M4 7h2M34 7h2M76 7h2M82 7h2M100 7h2M4 8h2M34 8h2M50 8h2M76 8h2M82 8h2M100 8h2M4 9h2M31 9h2M34 9h2M50 9h2M76 9h2M82 9h2M100 9h2M4 10h2M13 10h2M31 10h2M34 10h2M50 10h2M76 10h2M82 10h2M100 10h2M4 11h2M13 11h2M31 11h2M34 11h2M50 11h2M73 11h2M76 11h2M82 11h2M91 11h2M100 11h2" />
</svg>