<svg xmlns="http://www.w3.org/2000/svg" viewBox="0 -0.5 57 29" shapeRendering="crispEdges">
<metadata>Made with Pixels to Svg https://codepen.io/shshaw/pen/XbxvNj</metadata>
<path stroke="#ffcd27" d="M1 0h37M39 0h17M0 1h3M6 1h51M0 2h2M3 2h3M7 2h2M26 2h2M35 2h3M39 2h3M43 2h6M50 2h1M55 2h2M0 3h2M3 3h3M7 3h31M39 3h2M42 3h1M44 3h13M0 4h2M3 4h3M7 4h2M13 4h29M43 4h14M0 5h3M6 5h32M39 5h13M53 5h4M0 6h38M39 6h2M42 6h5M48 6h9M0 7h46M49 7h8M0 8h13M14 8h2M18 8h2M23 8h1M25 8h2M28 8h10M39 8h6M50 8h7M0 9h13M14 9h1M16 9h2M19 9h2M22 9h2M26 9h1M28 9h10M39 9h6M47 9h1M50 9h7M0 10h13M14 10h1M16 10h2M19 10h2M22 10h2M25 10h1M28 10h17M50 10h7M0 11h10M11 11h2M14 11h1M16 11h2M19 11h2M22 11h2M25 11h2M28 11h10M39 11h6M50 11h7M2 12h9M13 12h3M18 12h2M23 12h1M25 12h2M28 12h10M39 12h6M50 12h5M3 13h42M50 13h4M3 14h35M39 14h6M50 14h4M3 15h8M13 15h3M18 15h2M21 15h3M25 15h1M30 15h8M39 15h5M51 15h3M2 16h8M11 16h4M16 16h2M19 16h1M22 16h1M25 16h1M27 16h16M52 16h3M0 17h10M11 17h1M14 17h1M19 17h1M21 17h1M23 17h1M25 17h1M29 17h9M39 17h3M53 17h4M0 18h10M11 18h2M14 18h1M16 18h2M19 18h1M21 18h3M25 18h1M27 18h11M39 18h6M50 18h7M0 19h11M13 19h2M16 19h2M19 19h1M21 19h3M25 19h1M30 19h12M43 19h3M49 19h2M52 19h5M0 20h38M39 20h3M43 20h1M45 20h6M52 20h5M0 21h38M39 21h5M45 21h2M48 21h1M50 21h7M0 22h44M45 22h2M48 22h1M50 22h7M0 23h38M39 23h3M43 23h1M45 23h4M50 23h1M52 23h2M55 23h2M0 24h3M4 24h1M6 24h1M9 24h2M12 24h1M14 24h1M18 24h2M21 24h1M24 24h1M26 24h1M28 24h1M30 24h1M33 24h1M36 24h2M39 24h7M47 24h2M50 24h1M52 24h5M0 25h3M4 25h1M6 25h1M9 25h2M12 25h1M14 25h1M18 25h2M21 25h1M24 25h1M26 25h1M28 25h1M30 25h1M33 25h1M36 25h7M44 25h2M47 25h4M52 25h5M0 26h3M4 26h1M6 26h1M9 26h2M12 26h1M14 26h1M18 26h2M21 26h1M24 26h1M26 26h1M28 26h1M30 26h1M33 26h1M36 26h2M39 26h4M44 26h13M0 27h38M39 27h10M50 27h7M1 28h37M39 28h17" />
</svg>