<svg xmlns="http://www.w3.org/2000/svg" viewBox="0 -0.5 35 12" shapeRendering="crispEdges">
<metadata>Made with Pixels to Svg https://codepen.io/shshaw/pen/XbxvNj</metadata>
<path stroke="#ffffff" d="M0 0h3M4 0h3M12 0h3M24 0h3M33 0h1M0 1h3M4 1h3M12 1h3M24 1h3M32 1h3M0 2h3M4 2h3M12 2h3M24 2h3M33 2h1M5 4h1M28 4h3M4 5h3M28 5h3M5 6h1M28 6h3M4 8h2M12 8h3M24 8h3M4 9h3M12 9h3M24 9h3M4 10h3M12 10h3M24 10h3" />
<path stroke="#ffcd27" d="M16 0h2M20 0h3M28 0h3M16 1h3M20 1h3M28 1h3M16 2h3M21 2h2M28 2h3M1 4h2M8 4h3M17 4h1M24 4h3M0 5h3M8 5h3M16 5h3M24 5h3M0 6h3M9 6h2M17 6h1M24 6h2M0 8h3M8 8h3M0 9h3M8 9h3M0 10h3M8 10h3" />
</svg>