<svg xmlns="http://www.w3.org/2000/svg" viewBox="0 -0.5 35 30" shapeRendering="crispEdges">
<metadata>Made with Pixels to Svg https://codepen.io/shshaw/pen/XbxvNj</metadata>
<path stroke="#ffffff" d="M18 0h2M6 1h1M18 1h4M18 2h2M22 2h3M8 3h2M18 3h2M25 3h2M2 4h2M8 4h2M18 4h2M27 4h1M1 5h1M4 5h1M15 5h7M28 5h2M0 6h1M5 6h1M13 6h2M18 6h2M22 6h2M30 6h1M0 7h1M5 7h1M11 7h2M18 7h2M24 7h2M30 7h1M1 8h1M4 8h1M26 8h1M31 8h1M2 9h2M27 9h1M32 9h1M8 10h1M28 10h1M32 10h1M8 11h1M28 11h1M33 11h1M7 12h1M29 12h1M33 12h1M7 13h1M29 13h1M33 13h1M6 14h1M30 14h1M34 14h1M6 15h1M30 15h1M34 15h1M6 16h1M30 16h1M34 16h1M6 17h1M30 17h1M34 17h1M6 18h1M30 18h1M6 19h1M30 19h1M6 20h1M30 20h1M34 20h1M7 21h1M29 21h1M7 22h1M29 22h1M33 22h1M8 23h1M28 23h1M8 24h1M28 24h1M9 25h1M27 25h1M10 26h1M26 26h1M11 27h2M24 27h2M13 28h2M22 28h2M15 29h4" />
<path stroke="#ffcd27" d="M17 17h2M15 18h4M12 19h6M10 20h8M8 21h10M8 22h9M9 23h8M9 24h8M10 25h6M11 26h5M13 27h3" />
</svg>