<svg xmlns="http://www.w3.org/2000/svg" viewBox="0 -0.5 15 30" shapeRendering="crispEdges">
<metadata>Made with Pixels to Svg https://codepen.io/shshaw/pen/XbxvNj</metadata>
<path stroke="#ffffff" d="M7 0h1M6 1h3M6 2h3M5 3h2M8 3h2M5 4h1M9 4h1M5 5h5M5 6h1M9 6h1M5 7h5M5 8h5M5 9h5M5 10h5M6 11h3M3 12h2M6 12h3M10 12h2M2 13h3M6 13h3M10 13h3M2 14h2M6 14h3M11 14h2M1 15h3M5 15h5M11 15h3M1 16h3M5 16h5M11 16h3M0 17h2M3 17h1M5 17h5M11 17h1M13 17h2M0 18h4M5 18h5M11 18h4M5 19h5M0 20h3M4 20h7M12 20h3M1 21h2M4 21h7M12 21h2M4 22h2M7 22h1M9 22h2M7 23h1" />
<path stroke="#9e9e9e" d="M7 3h1M6 4h3M6 6h3M4 10h1M10 10h1M4 11h2M9 11h2M5 12h1M9 12h1M5 13h1M9 13h1M4 14h2M9 14h2M4 15h1M10 15h1M4 16h1M10 16h1M4 17h1M10 17h1M4 18h1M10 18h1M0 19h5M10 19h5M3 20h1M11 20h1M3 21h1M11 21h1M6 22h1M8 22h1M5 23h2M8 23h2" />
<path stroke="#3f51b5" d="M2 17h1M12 17h1" />
<path stroke="#d32f2f" d="M5 24h1M7 24h1M9 24h1M5 25h1M9 25h1M5 26h1M9 26h1M5 27h2M8 27h2M6 28h3M7 29h1" />
<path stroke="#ffc107" d="M6 24h1M8 24h1M6 25h3M6 26h3M7 27h1" />
</svg>