<svg xmlns="http://www.w3.org/2000/svg" viewBox="0 -0.5 20 20" shape-rendering="crispEdges">
<metadata>Made with Pixels to Svg https://codepen.io/shshaw/pen/XbxvNj</metadata>
<path stroke="#ffcd27" d="M6 1h1M13 1h1M7 2h1M12 2h1M17 2h2M16 3h3M15 4h3M14 5h3M13 6h3M12 7h3M11 8h3M17 8h2M1 9h1M10 9h3M17 9h2M3 10h1M9 10h3M2 11h1M4 11h1M8 11h3M16 11h1M3 12h1M7 12h3M6 13h3M7 14h1M9 17h1M8 18h1M10 18h1M9 19h1" />
<path stroke="#bf3030" d="M1 2h2M1 3h3M2 4h3M3 5h3M4 6h3M5 7h3M6 8h3M7 9h3M8 10h1M11 11h1M10 12h3M11 13h1" />
<path stroke="#3e3e3e" d="M12 13h2M5 14h2M5 15h2M13 15h3M3 16h1M5 16h1M14 16h3M3 17h2M15 17h2" />
<path stroke="#919191" d="M12 14h3M4 15h1M4 16h1" />
</svg>