<svg xmlns="http://www.w3.org/2000/svg" viewBox="0 -0.5 160 150" shapeRendering="crispEdges">
<metadata>Made with Pixels to Svg https://codepen.io/shshaw/pen/XbxvNj</metadata>
<path stroke="#1c1c1c" d="M0 0h160M0 1h160M0 2h55M56 2h56M113 2h47M0 3h160M0 4h160M0 5h160M0 6h150M151 6h9M0 7h15M16 7h53M71 7h48M120 7h40M0 8h69M71 8h89M0 9h46M47 9h45M93 9h67M0 10h91M92 10h1M94 10h41M137 10h23M0 11h19M21 11h71M93 11h42M137 11h23M0 12h19M21 12h139M0 13h160M0 14h160M0 15h160M0 16h160M0 17h21M22 17h138M0 18h160M0 19h160M0 20h160M0 21h160M0 22h160M0 23h160M0 24h56M57 24h103M0 25h7M8 25h148M157 25h3M0 26h111M112 26h48M0 27h86M88 27h72M0 28h48M49 28h37M88 28h72M0 29h47M48 29h1M50 29h110M0 30h48M49 30h111M0 31h26M27 31h133M0 32h25M26 32h1M28 32h132M0 33h26M27 33h133M0 34h160M0 35h86M87 35h73M0 36h160M0 37h160M0 38h109M110 38h19M130 38h30M0 39h108M109 39h1M111 39h36M148 39h12M0 40h6M7 40h102M110 40h36M147 40h1M149 40h11M0 41h147M148 41h12M0 42h80M81 42h79M0 43h160M0 44h160M0 45h142M143 45h17M0 46h160M0 47h160M0 48h160M0 49h160M0 50h58M59 50h101M0 51h160M0 52h12M13 52h147M0 53h11M12 53h1M14 53h146M0 54h12M13 54h147M0 55h160M0 56h160M0 57h84M85 57h75M0 58h83M84 58h1M86 58h74M0 59h84M85 59h75M0 60h108M109 60h51M0 61h107M108 61h1M110 61h50M0 62h108M109 62h45M155 62h5M0 63h35M36 63h124M0 64h160M0 65h152M153 65h7M0 66h160M0 67h160M0 68h160M0 69h160M0 70h160M0 71h72M74 71h40M115 71h45M0 72h72M74 72h86M0 73h160M0 74h160M0 75h160M0 76h36M38 76h16M55 76h105M0 77h36M38 77h15M54 77h1M56 77h104M0 78h54M55 78h105M0 79h160M0 80h19M20 80h113M134 80h26M0 81h160M0 82h81M82 82h78M0 83h160M0 84h160M0 85h11M12 85h148M0 86h160M0 87h116M117 87h43M0 88h160M0 89h160M0 90h154M155 90h5M0 91h160M0 92h160M0 93h160M0 94h160M0 95h98M99 95h61M0 96h116M117 96h43M0 97h115M116 97h1M118 97h42M0 98h82M83 98h33M117 98h43M0 99h43M44 99h16M61 99h99M0 100h42M43 100h1M45 100h115M0 101h43M44 101h100M146 101h14M0 102h16M17 102h127M146 102h14M0 103h35M36 103h124M0 104h160M0 105h155M156 105h4M0 106h160M0 107h160M0 108h160M0 109h40M41 109h119M0 110h160M0 111h160M0 112h133M134 112h26M0 113h160M0 114h160M0 115h92M93 115h67M0 116h160M0 117h160M0 118h160M0 119h160M0 120h160M0 121h18M19 121h55M75 121h85M0 122h108M109 122h51M0 123h107M108 123h1M110 123h50M0 124h108M109 124h42M152 124h8M0 125h160M0 126h39M41 126h119M0 127h39M41 127h119M0 128h160M0 129h7M8 129h35M44 129h116M0 130h129M130 130h30M0 131h160M0 132h104M105 132h55M0 133h160M0 134h160M0 135h160M0 136h139M140 136h20M0 137h138M139 137h1M141 137h19M0 138h139M140 138h20M0 139h65M66 139h94M0 140h160M0 141h96M97 141h63M0 142h15M16 142h144M0 143h160M0 144h160M0 145h160M0 146h160M0 147h160M0 148h160M0 149h160" />
<path stroke="#ffffff" d="M55 2h1M92 9h1M91 10h1M93 10h1M135 10h2M19 11h2M92 11h1M135 11h2M19 12h2M56 24h1M7 25h1M111 26h1M48 28h1M47 29h1M49 29h1M48 30h1M147 39h1M146 40h1M148 40h1M147 41h1M142 45h1M58 50h1M12 52h1M11 53h1M13 53h1M12 54h1M108 60h1M107 61h1M109 61h1M108 62h1M35 63h1M72 71h2M72 72h2M133 80h1M11 85h1M98 95h1M43 99h1M42 100h1M44 100h1M43 101h1M133 112h1M18 121h1M74 121h1M139 136h1M138 137h1M140 137h1M139 138h1M65 139h1" />
<path stroke="#5e5e5e" d="M112 2h1M15 7h1M46 9h1M156 25h1M86 27h2M86 28h2M26 31h1M25 32h1M27 32h1M26 33h1M129 38h1M80 42h1M152 65h1M114 71h1M54 76h1M53 77h1M55 77h1M54 78h1M19 80h1M81 82h1M154 90h1M82 98h1M144 101h2M144 102h2M35 103h1M40 109h1M108 122h1M107 123h1M109 123h1M108 124h1M39 126h2M39 127h2M129 130h1M96 141h1M15 142h1" />
<path stroke="#2b2b2b" d="M150 6h1M84 57h1M83 58h1M85 58h1M84 59h1M155 105h1M92 115h1M7 129h1" />
<path stroke="#212121" d="M69 7h2M119 7h1M69 8h2M21 17h1M86 35h1M109 38h1M108 39h1M110 39h1M6 40h1M109 40h1M154 62h1M36 76h2M36 77h2M116 87h1M116 96h1M115 97h1M117 97h1M116 98h1M60 99h1M16 102h1M151 124h1M43 129h1M104 132h1" />
</svg>