<svg xmlns="http://www.w3.org/2000/svg" viewBox="0 -0.5 41 22" shape-rendering="crispEdges">
<metadata>Made with Pixels to Svg https://codepen.io/shshaw/pen/XbxvNj</metadata>
<path stroke="#ffffff" d="M25 0h1M35 0h1M34 1h1M36 1h1M35 2h1M6 4h1M16 4h1M18 4h2M5 5h1M7 5h1M15 5h2M18 5h4M6 6h1M15 6h2M18 6h1M20 6h4M18 7h7M14 8h3M23 8h2M14 9h8M26 9h8M15 10h15M31 10h1M33 10h3M13 11h17M31 11h1M34 11h3M15 12h15M31 12h1M33 12h3M14 13h8M26 13h8M14 14h3M23 14h2M18 15h7M15 16h2M18 16h1M20 16h4M15 17h2M18 17h4M16 18h1M18 18h2" />
<path stroke="#999999" d="M10 1h1M38 3h1M9 19h1" />
<path stroke="#9e9e9e" d="M17 4h1M17 5h1M17 6h1M15 7h3M17 8h6M25 8h2M13 9h1M22 9h4M13 10h2M30 10h1M32 10h1M30 11h1M32 11h2M13 12h2M30 12h1M32 12h1M13 13h1M22 13h4M17 14h6M25 14h2M15 15h3M17 16h1M17 17h1M17 18h1" />
<path stroke="#3f51b5" d="M19 6h1M19 16h1" />
<path stroke="#d32f2f" d="M9 9h4M8 10h2M7 11h2M12 11h1M8 12h2M9 13h4" />
<path stroke="#ffc107" d="M10 10h3M9 11h3M10 12h3" />
<path stroke="#dbdbdb" d="M0 14h1M40 17h1" />
<path stroke="#454545" d="M6 16h2M6 17h2M26 18h1" />
<path stroke="#bfbfbf" d="M31 19h1M30 20h1M32 20h1M31 21h1" />
</svg>