<svg xmlns="http://www.w3.org/2000/svg" viewBox="0 -0.5 67 27" shapeRendering="crispEdges">
<metadata>Made with Pixels to Svg https://codepen.io/shshaw/pen/XbxvNj</metadata>
<path stroke="#dd0000" d="M17 1h1M13 2h5M40 2h6M11 3h8M33 3h3M37 3h3M41 3h2M44 3h1M9 4h8M27 4h4M32 4h6M42 4h1M7 5h7M23 5h6M30 5h1M6 6h5M20 6h5M5 7h5M16 7h1M19 7h5M28 7h1M5 8h4M12 8h6M20 8h2M52 8h1M58 8h1M4 9h15M46 9h4M53 9h8M5 10h12M35 10h1M41 10h6M49 10h1M51 10h12M5 11h7M14 11h1M31 11h3M38 11h7M50 11h6M59 11h2M13 12h1M27 12h6M37 12h3M43 12h2M47 12h2M52 12h3M23 13h9M41 13h1M43 13h4M49 13h1M53 13h1M21 14h9M38 14h1M43 14h1M45 14h2M18 15h8M28 15h1M33 15h2M37 15h1M42 15h1M15 16h8M26 16h3M30 16h3M37 16h1M12 17h12M26 17h2M29 17h2M12 18h6M19 18h5M25 18h1M10 19h6M19 19h3M12 20h1M17 20h2M11 21h1M16 21h1M18 21h1" />
<path stroke="#dd7700" d="M43 3h1M43 4h1M29 5h1M32 5h1M36 5h2M39 5h1M42 5h2M26 6h2M29 6h4M41 6h1M24 7h1M26 7h2M31 7h3M35 7h1M38 7h1M41 7h1M22 8h1M25 8h1M28 8h2M21 9h2M25 9h2M17 10h1M15 11h2M21 11h1M61 11h2M14 12h1M59 12h2M13 13h1M15 13h1M47 13h2M52 13h1M61 13h2M11 14h1M40 14h2M51 14h3M58 14h1M38 15h1M40 15h1M43 15h1M45 15h2M51 15h1M33 16h1M39 16h2M42 16h1M52 16h1M28 17h1M31 17h2M36 17h3M43 17h1M45 17h1M50 17h1M24 18h1M26 18h2M29 18h2M34 18h1M36 18h1M41 18h1M22 19h2M25 19h1M28 19h1M31 19h1M19 20h3M26 20h1M29 20h1M18 22h3" />
<path stroke="#dd9900" d="M38 5h1M33 6h2M36 6h2M42 6h1M29 7h1M36 7h1M42 7h1M26 8h1M31 8h8M40 8h2M28 9h2M31 9h3M35 9h1M41 9h1M21 10h1M25 10h1M28 10h2M17 11h1M20 11h1M24 11h2M15 12h2M20 12h2M61 12h2M12 13h1M14 13h1M16 13h1M59 13h2M12 14h4M59 14h3M10 15h5M41 15h1M47 15h2M52 15h1M57 15h4M8 16h5M43 16h1M45 16h2M50 16h2M55 16h5M6 17h5M39 17h2M42 17h1M44 17h1M46 17h2M51 17h7M4 18h5M37 18h4M42 18h1M44 18h4M49 18h9M2 19h5M26 19h2M29 19h1M32 19h3M36 19h4M41 19h3M48 19h5M54 19h6M3 20h2M25 20h1M28 20h1M31 20h3M35 20h2M38 20h2M41 20h2M47 20h4M55 20h8M2 21h1M19 21h3M24 21h9M36 21h1M39 21h3M48 21h3M56 21h11M24 22h2M28 22h5M36 22h1M40 22h2M47 22h3M57 22h9M18 23h3M24 23h2M29 23h4M41 23h1M47 23h3M59 23h7M18 24h3M24 24h1M30 24h2M47 24h1M49 24h1M61 24h5M18 25h2M64 25h1" />
</svg>