<svg xmlns="http://www.w3.org/2000/svg" viewBox="0 -0.5 53 26" shape-rendering="crispEdges">
<metadata>Made with Pixels to Svg https://codepen.io/shshaw/pen/XbxvNj</metadata>
<path stroke="#112152" d="M2 0h1" />
<path stroke="#0e2052" d="M3 0h1" />
<path stroke="#122463" d="M4 0h1" />
<path stroke="#10225d" d="M5 0h1" />
<path stroke="#0d214e" d="M6 0h1" />
<path stroke="#081e43" d="M7 0h1" />
<path stroke="#213054" d="M8 0h1" />
<path stroke="#2b3558" d="M9 0h1" />
<path stroke="#374567" d="M10 0h1" />
<path stroke="#43537d" d="M11 0h1" />
<path stroke="#4b569a" d="M12 0h1" />
<path stroke="#545bab" d="M13 0h1" />
<path stroke="#505596" d="M14 0h1" />
<path stroke="#585b94" d="M15 0h1" />
<path stroke="#6e70a3" d="M16 0h1" />
<path stroke="#7276a0" d="M17 0h1" />
<path stroke="#787ca5" d="M18 0h1" />
<path stroke="#7a7ca7" d="M19 0h1" />
<path stroke="#7a7aa6" d="M20 0h1" />
<path stroke="#72739e" d="M21 0h1" />
<path stroke="#696c93" d="M22 0h1" />
<path stroke="#616786" d="M23 0h1" />
<path stroke="#576078" d="M24 0h1M28 0h1" />
<path stroke="#505b70" d="M25 0h1" />
<path stroke="#535e6f" d="M26 0h1" />
<path stroke="#505b6e" d="M27 0h1" />
<path stroke="#5a6281" d="M29 0h1" />
<path stroke="#495270" d="M30 0h1" />
<path stroke="#444f6b" d="M31 0h1" />
<path stroke="#424d6e" d="M32 0h1" />
<path stroke="#3e4b6a" d="M33 0h1" />
<path stroke="#3d4c61" d="M34 0h1" />
<path stroke="#3b4862" d="M35 0h1" />
<path stroke="#37435e" d="M36 0h1" />
<path stroke="#323d56" d="M37 0h1" />
<path stroke="#2e3952" d="M38 0h1" />
<path stroke="#2d3750" d="M39 0h1" />
<path stroke="#2e374f" d="M40 0h1" />
<path stroke="#2d364e" d="M41 0h1" />
<path stroke="#2d364d" d="M42 0h1" />
<path stroke="#2e3a4d" d="M43 0h1" />
<path stroke="#303f50" d="M44 0h1" />
<path stroke="#313e56" d="M45 0h1" />
<path stroke="#313c59" d="M46 0h1" />
<path stroke="#303a5a" d="M47 0h1" />
<path stroke="#2a3455" d="M48 0h1" />
<path stroke="#2a3555" d="M49 0h1" />
<path stroke="#000557" d="M2 1h1" />
<path stroke="#121671" d="M3 1h1" />
<path stroke="#050b62" d="M4 1h1" />
<path stroke="#000450" d="M5 1h1" />
<path stroke="#020d4d" d="M6 1h1" />
<path stroke="#000a3e" d="M7 1h1" />
<path stroke="#020d44" d="M8 1h1" />
<path stroke="#02074b" d="M9 1h1" />
<path stroke="#02074e" d="M10 1h1" />
<path stroke="#050950" d="M11 1h1" />
<path stroke="#010057" d="M12 1h1" />
<path stroke="#0a0460" d="M13 1h1" />
<path stroke="#0a0558" d="M14 1h1" />
<path stroke="#020158" d="M15 1h1" />
<path stroke="#010655" d="M16 1h1" />
<path stroke="#03064f" d="M17 1h1" />
<path stroke="#07084f" d="M18 1h1" />
<path stroke="#0a0850" d="M19 1h1" />
<path stroke="#09074d" d="M20 1h1" />
<path stroke="#050348" d="M21 1h1" />
<path stroke="#020143" d="M22 1h1" />
<path stroke="#020442" d="M23 1h1" />
<path stroke="#020641" d="M24 1h1" />
<path stroke="#010841" d="M25 1h1" />
<path stroke="#00053d" d="M26 1h1" />
<path stroke="#00014d" d="M27 1h1" />
<path stroke="#060747" d="M28 1h1" />
<path stroke="#0a0944" d="M29 1h1" />
<path stroke="#050442" d="M30 1h1" />
<path stroke="#050443" d="M31 1h1" />
<path stroke="#040544" d="M32 1h1" />
<path stroke="#030644" d="M33 1h1" />
<path stroke="#040741" d="M34 1h1" />
<path stroke="#000241" d="M35 1h1" />
<path stroke="#020443" d="M36 1h1" />
<path stroke="#050544" d="M37 1h1" />
<path stroke="#070745" d="M38 1h1" />
<path stroke="#060744" d="M39 1h1" />
<path stroke="#060643" d="M40 1h1" />
<path stroke="#070642" d="M41 1h2" />
<path stroke="#05063f" d="M43 1h1" />
<path stroke="#030640" d="M44 1h1" />
<path stroke="#030449" d="M45 1h1" />
<path stroke="#04054e" d="M46 1h1" />
<path stroke="#060851" d="M47 1h1" />
<path stroke="#090c5a" d="M48 1h1" />
<path stroke="#00024f" d="M49 1h1" />
<path stroke="#414a77" d="M50 1h1" />
<path stroke="#535a95" d="M1 2h1" />
<path stroke="#080369" d="M2 2h1" />
<path stroke="#362b96" d="M3 2h1" />
<path stroke="#928dc4" d="M4 2h1" />
<path stroke="#9694ba" d="M5 2h1" />
<path stroke="#9e9ace" d="M6 2h1" />
<path stroke="#9a99ca" d="M7 2h1" />
<path stroke="#949ac5" d="M8 2h1" />
<path stroke="#939cd1" d="M9 2h1" />
<path stroke="#969cd5" d="M10 2h1" />
<path stroke="#989ac9" d="M11 2h1" />
<path stroke="#9d97cd" d="M12 2h1" />
<path stroke="#a398d2" d="M13 2h1" />
<path stroke="#978ece" d="M14 2h1" />
<path stroke="#070663" d="M15 2h1" />
<path stroke="#0e1974" d="M16 2h1" />
<path stroke="#9194db" d="M17 2h1" />
<path stroke="#9694d3" d="M18 2h1" />
<path stroke="#9a96d2" d="M19 2h1" />
<path stroke="#9894ce" d="M20 2h1" />
<path stroke="#9996cd" d="M21 2h1" />
<path stroke="#9b98ce" d="M22 2h1" />
<path stroke="#9998ce" d="M23 2h1" />
<path stroke="#9698cf" d="M24 2h1" />
<path stroke="#9498d0" d="M25 2h1" />
<path stroke="#777bba" d="M26 2h1" />
<path stroke="#070366" d="M27 2h1" />
<path stroke="#5a579c" d="M28 2h1" />
<path stroke="#9f9ccb" d="M29 2h1" />
<path stroke="#9d98cc" d="M30 2h1" />
<path stroke="#9c97cd" d="M31 2h1" />
<path stroke="#9d99ca" d="M32 2h1" />
<path stroke="#9d9bcc" d="M33 2h1" />
<path stroke="#9d9cce" d="M34 2h1" />
<path stroke="#9a99ce" d="M35 2h1" />
<path stroke="#9c9acf" d="M36 2h1" />
<path stroke="#9d9ad0" d="M37 2h1" />
<path stroke="#9e9bd0" d="M38 2h2" />
<path stroke="#9f9bcf" d="M40 2h1" />
<path stroke="#9f9ace" d="M41 2h2" />
<path stroke="#9c98cb" d="M43 2h1" />
<path stroke="#9a97ce" d="M44 2h1" />
<path stroke="#9b97d8" d="M45 2h1" />
<path stroke="#9a98d7" d="M46 2h1" />
<path stroke="#9799d6" d="M47 2h1" />
<path stroke="#313185" d="M48 2h1" />
<path stroke="#03026c" d="M49 2h1" />
<path stroke="#1b206d" d="M50 2h1" />
<path stroke="#2a3851" d="M51 2h1" />
<path stroke="#4e5a92" d="M0 3h1" />
<path stroke="#4c537d" d="M1 3h1" />
<path stroke="#0d035f" d="M2 3h1" />
<path stroke="#49388a" d="M3 3h1" />
<path stroke="#ffffff" d="M4 3h3M42 3h6M4 4h6M29 4h3M40 4h8M4 5h6M29 5h3M40 5h8M7 6h3M29 6h3M42 6h4M7 7h3M29 7h3M42 7h4M7 8h3M27 8h5M42 8h4M7 9h2M27 9h5M42 9h4M7 10h2M27 10h5M42 10h4M7 11h2M27 11h5M42 11h6M7 12h2M27 12h5M42 12h6M7 13h2M27 13h3M42 13h6M7 14h2M27 14h3M42 14h7M7 15h2M27 15h3M42 15h7M7 16h2M27 16h3M42 16h7M7 17h2M27 17h3M42 17h7M7 18h2M42 18h2M45 18h4M7 19h2M42 19h2M45 19h4M4 20h5M41 20h4M4 21h3M39 21h6M4 22h3M39 22h5" />
<path stroke="#fff7ff" d="M7 3h1M49 6h1M19 10h1" />
<path stroke="#fffaf7" d="M8 3h1M49 15h1" />
<path stroke="#fff9f9" d="M9 3h1" />
<path stroke="#fcfcff" d="M10 3h1M32 13h1" />
<path stroke="#f7ffed" d="M11 3h1" />
<path stroke="#f6fcea" d="M12 3h1" />
<path stroke="#fbfaf1" d="M13 3h1" />
<path stroke="#fef6ff" d="M14 3h1" />
<path stroke="#12064e" d="M15 3h1" />
<path stroke="#21186b" d="M16 3h1" />
<path stroke="#f7f6ff" d="M17 3h1" />
<path stroke="#f6fafc" d="M18 3h1" />
<path stroke="#fafdfc" d="M19 3h1M12 8h1" />
<path stroke="#f8faf6" d="M20 3h1" />
<path stroke="#fcfef6" d="M21 3h1" />
<path stroke="#fcfff8" d="M22 3h1" />
<path stroke="#f9fefa" d="M23 3h1" />
<path stroke="#f7fdfc" d="M24 3h1" />
<path stroke="#f5fdff" d="M25 3h1" />
<path stroke="#c1cae5" d="M26 3h1" />
<path stroke="#090852" d="M27 3h1" />
<path stroke="#9293b4" d="M28 3h1" />
<path stroke="#f8fbfb" d="M29 3h1" />
<path stroke="#fbfbff" d="M30 3h2M12 18h1" />
<path stroke="#fbfdf7" d="M32 3h1M10 4h1" />
<path stroke="#fbfef8" d="M33 3h1" />
<path stroke="#fafdfe" d="M34 3h1" />
<path stroke="#fbfeff" d="M35 3h1" />
<path stroke="#fafcff" d="M36 3h1M18 22h1" />
<path stroke="#fafbff" d="M37 3h1M12 9h1M12 10h1M12 13h1M12 22h1" />
<path stroke="#f9fbff" d="M38 3h1" />
<path stroke="#fbfcff" d="M39 3h1M48 10h1M32 11h1M32 12h1" />
<path stroke="#fcfbff" d="M40 3h1M32 10h1" />
<path stroke="#fcfcfe" d="M41 3h1" />
<path stroke="#464d6d" d="M48 3h1" />
<path stroke="#040267" d="M49 3h1" />
<path stroke="#020272" d="M50 3h1" />
<path stroke="#050c5b" d="M51 3h1" />
<path stroke="#384268" d="M52 3h1" />
<path stroke="#3b3e65" d="M0 4h1" />
<path stroke="#2a2466" d="M1 4h1" />
<path stroke="#1e006d" d="M2 4h1" />
<path stroke="#51398d" d="M3 4h1" />
<path stroke="#fefdf7" d="M11 4h1M19 5h1" />
<path stroke="#fffbff" d="M12 4h1M19 11h1" />
<path stroke="#fdf8ff" d="M13 4h1M32 16h1" />
<path stroke="#fcfdf0" d="M14 4h1" />
<path stroke="#100750" d="M15 4h1" />
<path stroke="#252061" d="M16 4h1" />
<path stroke="#fcf0ff" d="M17 4h1" />
<path stroke="#f8fcff" d="M18 4h1M21 19h1" />
<path stroke="#eeffff" d="M19 4h1" />
<path stroke="#f4fff8" d="M20 4h1" />
<path stroke="#fffef2" d="M21 4h1" />
<path stroke="#fdfdff" d="M22 4h1M22 20h1M22 21h1" />
<path stroke="#f8f9ff" d="M23 4h1" />
<path stroke="#fff9fb" d="M24 4h1" />
<path stroke="#f4fff5" d="M25 4h1" />
<path stroke="#c8d1d8" d="M26 4h1" />
<path stroke="#080453" d="M27 4h1" />
<path stroke="#9293b5" d="M28 4h1" />
<path stroke="#fafdfa" d="M32 4h1" />
<path stroke="#f9fcff" d="M33 4h1M48 8h1" />
<path stroke="#f8fdfe" d="M34 4h1" />
<path stroke="#848d9e" d="M35 4h1" />
<path stroke="#6d82a8" d="M36 4h1" />
<path stroke="#7a7e9e" d="M37 4h1" />
<path stroke="#737eab" d="M38 4h1" />
<path stroke="#7c7a9e" d="M39 4h1" />
<path stroke="#c6ced6" d="M48 4h1" />
<path stroke="#b8b3c3" d="M49 4h1" />
<path stroke="#080562" d="M50 4h1" />
<path stroke="#0a1273" d="M51 4h1" />
<path stroke="#262b6d" d="M52 4h1" />
<path stroke="#2b3360" d="M0 5h1" />
<path stroke="#17095f" d="M1 5h1" />
<path stroke="#1b0075" d="M2 5h1" />
<path stroke="#5b3f93" d="M3 5h1" />
<path stroke="#fcfcfc" d="M10 5h1" />
<path stroke="#fefdf9" d="M11 5h1" />
<path stroke="#fffcfe" d="M12 5h1M30 16h1" />
<path stroke="#fcf8ff" d="M13 5h1" />
<path stroke="#f5f5ff" d="M14 5h1" />
<path stroke="#0c035c" d="M15 5h1" />
<path stroke="#241e6f" d="M16 5h1" />
<path stroke="#fbf0ff" d="M17 5h1" />
<path stroke="#fff7ed" d="M18 5h1" />
<path stroke="#f9fdff" d="M20 5h1M31 22h1" />
<path stroke="#fffcff" d="M21 5h1M31 15h1M45 20h1" />
<path stroke="#fffefd" d="M22 5h1M30 17h1M11 19h1M11 20h1" />
<path stroke="#f6fafa" d="M23 5h1" />
<path stroke="#f9f4f9" d="M24 5h1" />
<path stroke="#f6f5ff" d="M25 5h1" />
<path stroke="#cac9f7" d="M26 5h1" />
<path stroke="#0a0256" d="M27 5h1" />
<path stroke="#9492b8" d="M28 5h1" />
<path stroke="#f9fcf5" d="M32 5h1" />
<path stroke="#fdfeff" d="M33 5h1" />
<path stroke="#fcf4ff" d="M34 5h1" />
<path stroke="#361b4e" d="M35 5h1" />
<path stroke="#100548" d="M36 5h1" />
<path stroke="#190754" d="M37 5h1" />
<path stroke="#1b035d" d="M38 5h1" />
<path stroke="#230049" d="M39 5h1" />
<path stroke="#f8fbff" d="M48 5h1M19 21h1M35 22h1" />
<path stroke="#faf1fc" d="M49 5h1" />
<path stroke="#11015f" d="M50 5h1" />
<path stroke="#1c036c" d="M51 5h1" />
<path stroke="#210958" d="M52 5h1" />
<path stroke="#b96846" d="M0 6h1" />
<path stroke="#a24276" d="M1 6h1" />
<path stroke="#330167" d="M2 6h1" />
<path stroke="#19005d" d="M3 6h1" />
<path stroke="#13002e" d="M4 6h1" />
<path stroke="#0d0a36" d="M5 6h1" />
<path stroke="#120825" d="M6 6h1" />
<path stroke="#fdfdf6" d="M10 6h1M11 13h1" />
<path stroke="#fefef7" d="M11 6h1M46 10h1" />
<path stroke="#fdfef8" d="M12 6h1" />
<path stroke="#b4b2c9" d="M13 6h1" />
<path stroke="#0d0842" d="M14 6h1" />
<path stroke="#0e0477" d="M15 6h1" />
<path stroke="#100978" d="M16 6h1" />
<path stroke="#000546" d="M17 6h1" />
<path stroke="#7a788c" d="M18 6h1" />
<path stroke="#fcf9fe" d="M19 6h1" />
<path stroke="#fcffff" d="M20 6h1M47 10h1" />
<path stroke="#f6f9fb" d="M21 6h1M24 19h1" />
<path stroke="#f9f9f6" d="M22 6h1" />
<path stroke="#a49aaa" d="M23 6h1" />
<path stroke="#1c073b" d="M24 6h1" />
<path stroke="#0e0962" d="M25 6h1" />
<path stroke="#160a5f" d="M26 6h1" />
<path stroke="#0f054d" d="M27 6h1" />
<path stroke="#9793b6" d="M28 6h1" />
<path stroke="#fbfaff" d="M32 6h1" />
<path stroke="#787192" d="M33 6h1" />
<path stroke="#320849" d="M34 6h1" />
<path stroke="#a92485" d="M35 6h1" />
<path stroke="#ca347a" d="M36 6h1" />
<path stroke="#d13272" d="M37 6h1" />
<path stroke="#c7356f" d="M38 6h1" />
<path stroke="#a54c72" d="M39 6h1" />
<path stroke="#31122c" d="M40 6h1" />
<path stroke="#73636c" d="M41 6h1" />
<path stroke="#fffcf6" d="M46 6h1M18 11h1M20 18h1" />
<path stroke="#fffcfb" d="M47 6h1M10 9h1M10 11h1" />
<path stroke="#fcf9ff" d="M48 6h1M23 21h1" />
<path stroke="#1c005f" d="M50 6h1" />
<path stroke="#500f82" d="M51 6h1" />
<path stroke="#9d4f79" d="M52 6h1" />
<path stroke="#e25718" d="M0 7h1" />
<path stroke="#e22e56" d="M1 7h1" />
<path stroke="#881155" d="M2 7h1" />
<path stroke="#7a1254" d="M3 7h1" />
<path stroke="#6e1b4e" d="M4 7h1" />
<path stroke="#280d50" d="M5 7h1" />
<path stroke="#110533" d="M6 7h1" />
<path stroke="#fefbfd" d="M10 7h1" />
<path stroke="#fefcff" d="M11 7h1M11 8h1M11 9h1" />
<path stroke="#fcfefa" d="M12 7h1" />
<path stroke="#b2b2cf" d="M13 7h1" />
<path stroke="#070354" d="M14 7h1" />
<path stroke="#080269" d="M15 7h1" />
<path stroke="#0e0c6b" d="M16 7h1" />
<path stroke="#747fb6" d="M17 7h1" />
<path stroke="#a9afc4" d="M18 7h1" />
<path stroke="#fbf9fa" d="M19 7h1" />
<path stroke="#fcfaf2" d="M20 7h1" />
<path stroke="#f9f6f4" d="M21 7h1" />
<path stroke="#dcc5db" d="M22 7h1" />
<path stroke="#ad6997" d="M23 7h1" />
<path stroke="#6f1859" d="M24 7h1" />
<path stroke="#280765" d="M25 7h1" />
<path stroke="#332167" d="M26 7h1" />
<path stroke="#736c7b" d="M27 7h1" />
<path stroke="#b8b5b1" d="M28 7h1" />
<path stroke="#fdfbff" d="M32 7h1" />
<path stroke="#7c729d" d="M33 7h1" />
<path stroke="#3a0055" d="M34 7h1" />
<path stroke="#da2789" d="M35 7h1" />
<path stroke="#f5244b" d="M36 7h1" />
<path stroke="#f51f43" d="M37 7h1" />
<path stroke="#f02740" d="M38 7h1" />
<path stroke="#b53f4f" d="M39 7h1" />
<path stroke="#2b0f34" d="M40 7h1" />
<path stroke="#7a6d84" d="M41 7h1" />
<path stroke="#fffef5" d="M46 7h1" />
<path stroke="#fffafa" d="M47 7h1" />
<path stroke="#fefdff" d="M48 7h1" />
<path stroke="#fbffff" d="M49 7h1M48 13h1" />
<path stroke="#180057" d="M50 7h1" />
<path stroke="#660a81" d="M51 7h1" />
<path stroke="#e24f0b" d="M0 8h1" />
<path stroke="#fa1f48" d="M1 8h1" />
<path stroke="#d82d5b" d="M2 8h1" />
<path stroke="#d43150" d="M3 8h1" />
<path stroke="#c34462" d="M4 8h1" />
<path stroke="#2b023e" d="M5 8h1" />
<path stroke="#14052f" d="M6 8h1" />
<path stroke="#fffcf9" d="M10 8h1" />
<path stroke="#b1b2d3" d="M13 8h1" />
<path stroke="#0a0560" d="M14 8h1" />
<path stroke="#080657" d="M15 8h1" />
<path stroke="#1c1d64" d="M16 8h1" />
<path stroke="#f1f3ff" d="M17 8h1" />
<path stroke="#fdfdfb" d="M18 8h1" />
<path stroke="#fdfcf5" d="M19 8h1" />
<path stroke="#fafaf5" d="M20 8h1" />
<path stroke="#f1e8fa" d="M21 8h1" />
<path stroke="#360136" d="M22 8h1" />
<path stroke="#a92665" d="M23 8h1" />
<path stroke="#cf3667" d="M24 8h1" />
<path stroke="#5e1a55" d="M25 8h1" />
<path stroke="#5c476f" d="M26 8h1" />
<path stroke="#fefaff" d="M32 8h1M32 9h1M16 11h1M31 16h1" />
<path stroke="#796e9d" d="M33 8h1" />
<path stroke="#3a0058" d="M34 8h1" />
<path stroke="#e0227b" d="M35 8h1" />
<path stroke="#fb2240" d="M36 8h1" />
<path stroke="#f82250" d="M37 8h1" />
<path stroke="#f92143" d="M38 8h1" />
<path stroke="#c7394a" d="M39 8h1" />
<path stroke="#380935" d="M40 8h1" />
<path stroke="#7c617c" d="M41 8h1" />
<path stroke="#fffdf4" d="M46 8h1" />
<path stroke="#fffdfc" d="M47 8h1M30 15h1M20 19h1" />
<path stroke="#f1fffe" d="M49 8h1M49 10h1" />
<path stroke="#140055" d="M50 8h1" />
<path stroke="#6e087e" d="M51 8h1" />
<path stroke="#e0530c" d="M0 9h1" />
<path stroke="#fe1c43" d="M1 9h1" />
<path stroke="#eb254f" d="M2 9h1" />
<path stroke="#eb293e" d="M3 9h1" />
<path stroke="#cc4153" d="M4 9h1" />
<path stroke="#260033" d="M5 9h1" />
<path stroke="#18022c" d="M6 9h1" />
<path stroke="#fffcf2" d="M9 9h1" />
<path stroke="#b2b3d1" d="M13 9h1" />
<path stroke="#0c0754" d="M14 9h1" />
<path stroke="#8688b1" d="M15 9h1" />
<path stroke="#9194b5" d="M16 9h1" />
<path stroke="#f3f4fc" d="M17 9h1" />
<path stroke="#fff9f2" d="M18 9h1" />
<path stroke="#f9f5f4" d="M19 9h1" />
<path stroke="#9f9eb2" d="M20 9h1" />
<path stroke="#856fa1" d="M21 9h1" />
<path stroke="#77216b" d="M22 9h1" />
<path stroke="#cf266a" d="M23 9h1" />
<path stroke="#dd2c5a" d="M24 9h1" />
<path stroke="#62154b" d="M25 9h1" />
<path stroke="#5f4768" d="M26 9h1" />
<path stroke="#7a6ea1" d="M33 9h1" />
<path stroke="#3a005f" d="M34 9h1" />
<path stroke="#e02284" d="M35 9h1" />
<path stroke="#fe2047" d="M36 9h1" />
<path stroke="#fb1f55" d="M37 9h1" />
<path stroke="#fa2041" d="M38 9h1" />
<path stroke="#c63b41" d="M39 9h1" />
<path stroke="#360a2b" d="M40 9h1" />
<path stroke="#7d6378" d="M41 9h1" />
<path stroke="#fdfdf4" d="M46 9h1" />
<path stroke="#fefffd" d="M47 9h1M31 13h1" />
<path stroke="#f9feff" d="M48 9h1M31 20h1" />
<path stroke="#eefffe" d="M49 9h1" />
<path stroke="#0f0354" d="M50 9h1" />
<path stroke="#6e077c" d="M51 9h1" />
<path stroke="#e44f0b" d="M0 10h1" />
<path stroke="#fd1b43" d="M1 10h1" />
<path stroke="#f41e54" d="M2 10h1" />
<path stroke="#f52244" d="M3 10h1" />
<path stroke="#ca4052" d="M4 10h1" />
<path stroke="#24002f" d="M5 10h1" />
<path stroke="#18012a" d="M6 10h1" />
<path stroke="#fffbf6" d="M9 10h1M9 11h1M19 14h1" />
<path stroke="#fffbfd" d="M10 10h1" />
<path stroke="#fefcfe" d="M11 10h1" />
<path stroke="#b2b3c7" d="M13 10h1" />
<path stroke="#0d093c" d="M14 10h1" />
<path stroke="#f3f5fe" d="M15 10h1" />
<path stroke="#f7f8ff" d="M16 10h1" />
<path stroke="#f4f9fd" d="M17 10h1" />
<path stroke="#fffaf6" d="M18 10h1" />
<path stroke="#62547b" d="M20 10h1" />
<path stroke="#32094d" d="M21 10h1" />
<path stroke="#a6398a" d="M22 10h1" />
<path stroke="#e22870" d="M23 10h1" />
<path stroke="#dc285e" d="M24 10h1" />
<path stroke="#5c1455" d="M25 10h1" />
<path stroke="#614668" d="M26 10h1" />
<path stroke="#786f9f" d="M33 10h1M33 11h1" />
<path stroke="#390062" d="M34 10h1" />
<path stroke="#dc218e" d="M35 10h1" />
<path stroke="#ff1d4a" d="M36 10h1" />
<path stroke="#ff1d47" d="M37 10h1" />
<path stroke="#f82239" d="M38 10h1" />
<path stroke="#be3b45" d="M39 10h1" />
<path stroke="#33082f" d="M40 10h1" />
<path stroke="#7b617c" d="M41 10h1" />
<path stroke="#0f0352" d="M50 10h1" />
<path stroke="#6d077a" d="M51 10h1" />
<path stroke="#e94d0b" d="M0 11h1" />
<path stroke="#f61e40" d="M1 11h1" />
<path stroke="#f81b59" d="M2 11h1" />
<path stroke="#fa1e4b" d="M3 11h1" />
<path stroke="#ca414f" d="M4 11h1" />
<path stroke="#240027" d="M5 11h1" />
<path stroke="#150326" d="M6 11h1" />
<path stroke="#fefef5" d="M11 11h1" />
<path stroke="#fafbfe" d="M12 11h1" />
<path stroke="#eeeff8" d="M13 11h1" />
<path stroke="#d7d4f0" d="M14 11h1" />
<path stroke="#f9f8f4" d="M15 11h1" />
<path stroke="#f7fbf7" d="M17 11h1" />
<path stroke="#eadcf3" d="M20 11h1" />
<path stroke="#e4c0f3" d="M21 11h1" />
<path stroke="#71105e" d="M22 11h1" />
<path stroke="#d01866" d="M23 11h1" />
<path stroke="#e52760" d="M24 11h1" />
<path stroke="#5e114f" d="M25 11h1" />
<path stroke="#634663" d="M26 11h1" />
<path stroke="#380062" d="M34 11h1" />
<path stroke="#dc218c" d="M35 11h1" />
<path stroke="#ff1c4b" d="M36 11h1" />
<path stroke="#ff1c40" d="M37 11h1" />
<path stroke="#f4223e" d="M38 11h1" />
<path stroke="#bb3856" d="M39 11h1" />
<path stroke="#390038" d="M40 11h1" />
<path stroke="#825c80" d="M41 11h1" />
<path stroke="#fff9ff" d="M48 11h1M48 12h1M20 14h1M34 22h1" />
<path stroke="#f9fcfe" d="M49 11h1" />
<path stroke="#140052" d="M50 11h1" />
<path stroke="#6e0678" d="M51 11h1" />
<path stroke="#de5306" d="M0 12h1" />
<path stroke="#ef2339" d="M1 12h1" />
<path stroke="#f71d50" d="M2 12h1" />
<path stroke="#fc1e44" d="M3 12h1" />
<path stroke="#ce4146" d="M4 12h1" />
<path stroke="#270025" d="M5 12h1" />
<path stroke="#100429" d="M6 12h1" />
<path stroke="#fffafc" d="M9 12h1M11 15h1" />
<path stroke="#fffbfc" d="M10 12h1M12 21h1" />
<path stroke="#fefef3" d="M11 12h1" />
<path stroke="#fbfbfc" d="M12 12h1" />
<path stroke="#f9f9f9" d="M13 12h1" />
<path stroke="#fdf9ff" d="M14 12h1M32 14h1" />
<path stroke="#ffffef" d="M15 12h1" />
<path stroke="#fff8ff" d="M16 12h1M12 19h1" />
<path stroke="#fffffa" d="M17 12h1" />
<path stroke="#f7fefa" d="M18 12h1" />
<path stroke="#fbfefd" d="M19 12h1" />
<path stroke="#fdfffb" d="M20 12h1" />
<path stroke="#e9e9f9" d="M21 12h1" />
<path stroke="#37003f" d="M22 12h1" />
<path stroke="#bf196e" d="M23 12h1" />
<path stroke="#ea2664" d="M24 12h1" />
<path stroke="#5f0e4b" d="M25 12h1" />
<path stroke="#624764" d="M26 12h1" />
<path stroke="#776ea4" d="M33 12h1" />
<path stroke="#380064" d="M34 12h1" />
<path stroke="#de2187" d="M35 12h1" />
<path stroke="#ff1b4e" d="M36 12h1" />
<path stroke="#ff1c3e" d="M37 12h1" />
<path stroke="#f02341" d="M38 12h1" />
<path stroke="#b73a53" d="M39 12h1" />
<path stroke="#34022e" d="M40 12h1" />
<path stroke="#7e5e75" d="M41 12h1" />
<path stroke="#fff9fd" d="M49 12h1" />
<path stroke="#180051" d="M50 12h1" />
<path stroke="#710479" d="M51 12h1" />
<path stroke="#db560a" d="M0 13h1" />
<path stroke="#f61c3e" d="M1 13h1" />
<path stroke="#fb1f49" d="M2 13h1" />
<path stroke="#f3223e" d="M3 13h1" />
<path stroke="#d04247" d="M4 13h1" />
<path stroke="#280031" d="M5 13h1" />
<path stroke="#0f032c" d="M6 13h1" />
<path stroke="#fefaf7" d="M9 13h1" />
<path stroke="#fdfef1" d="M10 13h1" />
<path stroke="#fafcf4" d="M13 13h1" />
<path stroke="#fdf9fd" d="M14 13h1" />
<path stroke="#fdfff2" d="M15 13h1" />
<path stroke="#fdf2ff" d="M16 13h1" />
<path stroke="#fcfbfe" d="M17 13h1" />
<path stroke="#fafffb" d="M18 13h1" />
<path stroke="#fffafb" d="M19 13h1" />
<path stroke="#fffafd" d="M20 13h1" />
<path stroke="#ecefff" d="M21 13h1" />
<path stroke="#280034" d="M22 13h1" />
<path stroke="#bd1f75" d="M23 13h1" />
<path stroke="#de2a6e" d="M24 13h1" />
<path stroke="#571654" d="M25 13h1" />
<path stroke="#5f4763" d="M26 13h1" />
<path stroke="#fffffb" d="M30 13h1" />
<path stroke="#7770a2" d="M33 13h1" />
<path stroke="#380063" d="M34 13h1" />
<path stroke="#e01c89" d="M35 13h1" />
<path stroke="#ff1c50" d="M36 13h1" />
<path stroke="#fc2338" d="M37 13h1" />
<path stroke="#f02240" d="M38 13h1" />
<path stroke="#b93a4b" d="M39 13h1" />
<path stroke="#30062f" d="M40 13h1" />
<path stroke="#7e6277" d="M41 13h1" />
<path stroke="#fefaf5" d="M49 13h1" />
<path stroke="#1a0153" d="M50 13h1" />
<path stroke="#71027b" d="M51 13h1" />
<path stroke="#e55013" d="M0 14h1" />
<path stroke="#f71946" d="M1 14h1" />
<path stroke="#f91c4d" d="M2 14h1" />
<path stroke="#f12443" d="M3 14h1" />
<path stroke="#c64547" d="M4 14h1" />
<path stroke="#2b0031" d="M5 14h1" />
<path stroke="#14012f" d="M6 14h1" />
<path stroke="#fffbef" d="M9 14h1" />
<path stroke="#f5ffef" d="M10 14h1" />
<path stroke="#fdfcfb" d="M11 14h1" />
<path stroke="#f9fbfe" d="M12 14h1" />
<path stroke="#f6fff5" d="M13 14h1" />
<path stroke="#f9fff1" d="M14 14h1" />
<path stroke="#ecfeff" d="M15 14h1" />
<path stroke="#f6f2fe" d="M16 14h1" />
<path stroke="#fef9ff" d="M17 14h1M23 20h1" />
<path stroke="#fffdfb" d="M18 14h1M10 17h1" />
<path stroke="#f6eaff" d="M21 14h1" />
<path stroke="#430f3c" d="M22 14h1" />
<path stroke="#a72d75" d="M23 14h1" />
<path stroke="#be3487" d="M24 14h1" />
<path stroke="#580f5e" d="M25 14h1" />
<path stroke="#5e485b" d="M26 14h1" />
<path stroke="#fffef7" d="M30 14h1" />
<path stroke="#fefdfe" d="M31 14h1" />
<path stroke="#786db1" d="M33 14h1" />
<path stroke="#37006f" d="M34 14h1" />
<path stroke="#d92280" d="M35 14h1" />
<path stroke="#fe1e4c" d="M36 14h1" />
<path stroke="#fc2246" d="M37 14h1" />
<path stroke="#f81d4c" d="M38 14h1" />
<path stroke="#c23752" d="M39 14h1" />
<path stroke="#2f0037" d="M40 14h1" />
<path stroke="#855c82" d="M41 14h1" />
<path stroke="#fff8f6" d="M49 14h1" />
<path stroke="#170053" d="M50 14h1" />
<path stroke="#6d067d" d="M51 14h1" />
<path stroke="#f44a0a" d="M0 15h1" />
<path stroke="#fc1b43" d="M1 15h1" />
<path stroke="#ff1851" d="M2 15h1" />
<path stroke="#f91c4f" d="M3 15h1" />
<path stroke="#c54050" d="M4 15h1" />
<path stroke="#2d0038" d="M5 15h1" />
<path stroke="#1b002c" d="M6 15h1" />
<path stroke="#fcfdef" d="M9 15h1" />
<path stroke="#f3fff0" d="M10 15h1" />
<path stroke="#fefafb" d="M12 15h1" />
<path stroke="#fff8f9" d="M13 15h1" />
<path stroke="#f5f2f0" d="M14 15h1" />
<path stroke="#001048" d="M15 15h1" />
<path stroke="#31234c" d="M16 15h1" />
<path stroke="#fbf6ff" d="M17 15h1" />
<path stroke="#fcfff9" d="M18 15h1" />
<path stroke="#f8fff3" d="M19 15h1" />
<path stroke="#f3fffe" d="M20 15h1" />
<path stroke="#f8feff" d="M21 15h1" />
<path stroke="#fff5ff" d="M22 15h1" />
<path stroke="#a788b9" d="M23 15h1" />
<path stroke="#23005e" d="M24 15h1" />
<path stroke="#1a005a" d="M25 15h1" />
<path stroke="#5b437a" d="M26 15h1" />
<path stroke="#fdfaff" d="M32 15h1" />
<path stroke="#786f9e" d="M33 15h1" />
<path stroke="#37005a" d="M34 15h1" />
<path stroke="#d9247a" d="M35 15h1" />
<path stroke="#fa2244" d="M36 15h1" />
<path stroke="#f1264d" d="M37 15h1" />
<path stroke="#f81d4d" d="M38 15h1" />
<path stroke="#c8394f" d="M39 15h1" />
<path stroke="#2d0239" d="M40 15h1" />
<path stroke="#7e6082" d="M41 15h1" />
<path stroke="#0f0453" d="M50 15h1" />
<path stroke="#650c7e" d="M51 15h1" />
<path stroke="#de5400" d="M0 16h1" />
<path stroke="#eb2b3b" d="M1 16h1" />
<path stroke="#f22249" d="M2 16h1" />
<path stroke="#f71a4c" d="M3 16h1" />
<path stroke="#c53d54" d="M4 16h1" />
<path stroke="#20043c" d="M5 16h1" />
<path stroke="#09082a" d="M6 16h1" />
<path stroke="#f9fdf6" d="M9 16h1" />
<path stroke="#f9fef6" d="M10 16h1" />
<path stroke="#fffbfa" d="M11 16h1" />
<path stroke="#fefaf8" d="M12 16h1" />
<path stroke="#f3e3f4" d="M13 16h1" />
<path stroke="#cec2f2" d="M14 16h1" />
<path stroke="#010b67" d="M15 16h1" />
<path stroke="#2b226a" d="M16 16h1" />
<path stroke="#fdf6ff" d="M17 16h1" />
<path stroke="#fffdf8" d="M18 16h1" />
<path stroke="#fdfff4" d="M19 16h1" />
<path stroke="#f9fff7" d="M20 16h1" />
<path stroke="#fdfff8" d="M21 16h1" />
<path stroke="#fcfffd" d="M22 16h1" />
<path stroke="#838eba" d="M23 16h1" />
<path stroke="#000371" d="M24 16h1" />
<path stroke="#070269" d="M25 16h1" />
<path stroke="#594572" d="M26 16h1" />
<path stroke="#796e9c" d="M33 16h1" />
<path stroke="#3c0057" d="M34 16h1" />
<path stroke="#e61c86" d="M35 16h1" />
<path stroke="#ff1f48" d="M36 16h1" />
<path stroke="#ef284f" d="M37 16h1" />
<path stroke="#fb1e49" d="M38 16h1" />
<path stroke="#d3384b" d="M39 16h1" />
<path stroke="#3b023d" d="M40 16h1" />
<path stroke="#855f83" d="M41 16h1" />
<path stroke="#f6fef7" d="M49 16h1" />
<path stroke="#090652" d="M50 16h1" />
<path stroke="#680c81" d="M51 16h1" />
<path stroke="#dd5509" d="M0 17h1" />
<path stroke="#f53146" d="M1 17h1" />
<path stroke="#e9294d" d="M2 17h1" />
<path stroke="#ec2255" d="M3 17h1" />
<path stroke="#c6395c" d="M4 17h1" />
<path stroke="#300749" d="M5 17h1" />
<path stroke="#0a042c" d="M6 17h1" />
<path stroke="#fdfafa" d="M9 17h1" />
<path stroke="#fbfff8" d="M11 17h1" />
<path stroke="#f8fdfb" d="M12 17h1M20 21h1" />
<path stroke="#aeb7ce" d="M13 17h1" />
<path stroke="#0d065d" d="M14 17h1" />
<path stroke="#120055" d="M15 17h1" />
<path stroke="#262460" d="M16 17h1" />
<path stroke="#f4f5ff" d="M17 17h1" />
<path stroke="#fcfaff" d="M18 17h1" />
<path stroke="#fffbf5" d="M19 17h1" />
<path stroke="#fffaf2" d="M20 17h1" />
<path stroke="#fffcfa" d="M21 17h1" />
<path stroke="#f6f7f7" d="M22 17h1" />
<path stroke="#9195b2" d="M23 17h1" />
<path stroke="#0b0661" d="M24 17h1" />
<path stroke="#0d006b" d="M25 17h1" />
<path stroke="#564771" d="M26 17h1" />
<path stroke="#fdfbfd" d="M31 17h1" />
<path stroke="#fffaff" d="M32 17h1" />
<path stroke="#7c6fa5" d="M33 17h1" />
<path stroke="#3e0065" d="M34 17h1" />
<path stroke="#e1198c" d="M35 17h1" />
<path stroke="#fd1d4e" d="M36 17h1" />
<path stroke="#f22747" d="M37 17h1" />
<path stroke="#f71f44" d="M38 17h1" />
<path stroke="#cd384e" d="M39 17h1" />
<path stroke="#38003b" d="M40 17h1" />
<path stroke="#845d86" d="M41 17h1" />
<path stroke="#effbf3" d="M49 17h1" />
<path stroke="#110555" d="M50 17h1" />
<path stroke="#730781" d="M51 17h1" />
<path stroke="#db5611" d="M0 18h1" />
<path stroke="#df2c51" d="M1 18h1" />
<path stroke="#8a0941" d="M2 18h1" />
<path stroke="#6a0242" d="M3 18h1" />
<path stroke="#601642" d="M4 18h1" />
<path stroke="#140044" d="M5 18h1" />
<path stroke="#0f0730" d="M6 18h1" />
<path stroke="#fff8f7" d="M9 18h1" />
<path stroke="#fefdfc" d="M10 18h1" />
<path stroke="#fbfffa" d="M11 18h1M10 19h1M21 21h1" />
<path stroke="#9bb2c6" d="M13 18h1" />
<path stroke="#190562" d="M14 18h1" />
<path stroke="#a14b95" d="M15 18h1" />
<path stroke="#795478" d="M16 18h1" />
<path stroke="#151435" d="M17 18h1" />
<path stroke="#70768a" d="M18 18h1" />
<path stroke="#f4f4f1" d="M19 18h1" />
<path stroke="#f6f8fe" d="M21 18h1" />
<path stroke="#f6ffff" d="M22 18h1M22 19h1" />
<path stroke="#f5fdfc" d="M23 18h1" />
<path stroke="#eae9ff" d="M24 18h1M30 21h1" />
<path stroke="#4c4e9f" d="M25 18h1" />
<path stroke="#190a5a" d="M26 18h1" />
<path stroke="#170e34" d="M27 18h1" />
<path stroke="#1a133b" d="M28 18h1" />
<path stroke="#1a143a" d="M29 18h1" />
<path stroke="#e5e4ef" d="M30 18h1" />
<path stroke="#fbfdf2" d="M31 18h1" />
<path stroke="#fdfcfd" d="M32 18h1" />
<path stroke="#7b70a2" d="M33 18h1" />
<path stroke="#38005e" d="M34 18h1" />
<path stroke="#da1c7d" d="M35 18h1" />
<path stroke="#fb1c50" d="M36 18h1" />
<path stroke="#fa2541" d="M37 18h1" />
<path stroke="#f82c50" d="M38 18h1" />
<path stroke="#c54459" d="M39 18h1" />
<path stroke="#32032d" d="M40 18h1" />
<path stroke="#7c6078" d="M41 18h1" />
<path stroke="#fcfef9" d="M44 18h1" />
<path stroke="#f9fcf8" d="M49 18h1" />
<path stroke="#190156" d="M50 18h1" />
<path stroke="#750580" d="M51 18h1" />
<path stroke="#c85f1f" d="M0 19h1" />
<path stroke="#c13871" d="M1 19h1" />
<path stroke="#450053" d="M2 19h1" />
<path stroke="#22004f" d="M3 19h1" />
<path stroke="#1e0b2f" d="M4 19h1" />
<path stroke="#0f073c" d="M5 19h1" />
<path stroke="#180322" d="M6 19h1" />
<path stroke="#fefcf5" d="M9 19h1" />
<path stroke="#a6b0be" d="M13 19h1" />
<path stroke="#230146" d="M14 19h1" />
<path stroke="#a83e87" d="M15 19h1" />
<path stroke="#894c71" d="M16 19h1" />
<path stroke="#180930" d="M17 19h1" />
<path stroke="#76748c" d="M18 19h1" />
<path stroke="#fcf7fa" d="M19 19h1" />
<path stroke="#f8fef7" d="M23 19h1" />
<path stroke="#545e85" d="M25 19h1" />
<path stroke="#0c024a" d="M26 19h1" />
<path stroke="#100844" d="M27 19h1" />
<path stroke="#0e0555" d="M28 19h1" />
<path stroke="#080147" d="M29 19h1" />
<path stroke="#e3e3fe" d="M30 19h1" />
<path stroke="#f9fdf9" d="M31 19h1M20 22h1" />
<path stroke="#fbfbfe" d="M32 19h1" />
<path stroke="#787098" d="M33 19h1" />
<path stroke="#2e004c" d="M34 19h1" />
<path stroke="#c12a79" d="M35 19h1" />
<path stroke="#da2569" d="M36 19h1" />
<path stroke="#de2a55" d="M37 19h1" />
<path stroke="#d0316a" d="M38 19h1" />
<path stroke="#aa4567" d="M39 19h1" />
<path stroke="#380821" d="M40 19h1" />
<path stroke="#826567" d="M41 19h1" />
<path stroke="#f9fffa" d="M44 19h1" />
<path stroke="#fff4f6" d="M49 19h1" />
<path stroke="#120053" d="M50 19h1" />
<path stroke="#5a0c7e" d="M51 19h1" />
<path stroke="#ad407b" d="M52 19h1" />
<path stroke="#593a00" d="M0 20h1" />
<path stroke="#490649" d="M1 20h1" />
<path stroke="#210065" d="M2 20h1" />
<path stroke="#4c3484" d="M3 20h1" />
<path stroke="#f9fff4" d="M9 20h1" />
<path stroke="#fbfff7" d="M10 20h1" />
<path stroke="#fff9fa" d="M12 20h1" />
<path stroke="#f6f3f6" d="M13 20h1" />
<path stroke="#f1dcfb" d="M14 20h1" />
<path stroke="#400758" d="M15 20h1" />
<path stroke="#462159" d="M16 20h1" />
<path stroke="#eee7ff" d="M17 20h1" />
<path stroke="#f0f0fd" d="M18 20h1" />
<path stroke="#faf7ff" d="M19 20h1" />
<path stroke="#fcfdfe" d="M20 20h1" />
<path stroke="#f9fdfa" d="M21 20h1" />
<path stroke="#fefbfa" d="M24 20h1" />
<path stroke="#efeff7" d="M25 20h1" />
<path stroke="#eaebff" d="M26 20h1" />
<path stroke="#e6e8ff" d="M27 20h1" />
<path stroke="#aeabe7" d="M28 20h1" />
<path stroke="#0c0945" d="M29 20h1" />
<path stroke="#e7eaff" d="M30 20h1" />
<path stroke="#f9fcfb" d="M32 20h1" />
<path stroke="#f1f0f7" d="M33 20h1" />
<path stroke="#f6e3ff" d="M34 20h1" />
<path stroke="#591b63" d="M35 20h1" />
<path stroke="#4f015b" d="M36 20h1" />
<path stroke="#540244" d="M37 20h1" />
<path stroke="#4a055c" d="M38 20h1" />
<path stroke="#3e0943" d="M39 20h1" />
<path stroke="#e5bbcf" d="M40 20h1" />
<path stroke="#fafffd" d="M46 20h1" />
<path stroke="#f8ffff" d="M47 20h1" />
<path stroke="#fffeff" d="M48 20h1" />
<path stroke="#fff5fa" d="M49 20h1" />
<path stroke="#070854" d="M50 20h1" />
<path stroke="#1c0262" d="M51 20h1" />
<path stroke="#43114e" d="M52 20h1" />
<path stroke="#0c0064" d="M2 21h1" />
<path stroke="#583a80" d="M3 21h1" />
<path stroke="#fff7f5" d="M7 21h1" />
<path stroke="#fbfaf3" d="M8 21h1" />
<path stroke="#fbfcf7" d="M9 21h1" />
<path stroke="#fdfdf7" d="M10 21h1" />
<path stroke="#fefdf8" d="M11 21h1" />
<path stroke="#fffbfb" d="M13 21h1" />
<path stroke="#fbf9f8" d="M14 21h1" />
<path stroke="#11005f" d="M15 21h1" />
<path stroke="#251865" d="M16 21h1" />
<path stroke="#f0f2ff" d="M17 21h1" />
<path stroke="#f4f9ff" d="M18 21h1" />
<path stroke="#fcfdfb" d="M24 21h1" />
<path stroke="#f9fcf2" d="M25 21h1" />
<path stroke="#f7fcf3" d="M26 21h1" />
<path stroke="#f4fefe" d="M27 21h1" />
<path stroke="#b4b9da" d="M28 21h1" />
<path stroke="#09063e" d="M29 21h1" />
<path stroke="#f6fbff" d="M31 21h1" />
<path stroke="#f6fef9" d="M32 21h1" />
<path stroke="#fafef5" d="M33 21h1" />
<path stroke="#f4f4fb" d="M34 21h1" />
<path stroke="#5e5d8d" d="M35 21h1" />
<path stroke="#494283" d="M36 21h1" />
<path stroke="#4d4178" d="M37 21h1" />
<path stroke="#4b407f" d="M38 21h1" />
<path stroke="#fefbfc" d="M45 21h1" />
<path stroke="#f9fffe" d="M46 21h1" />
<path stroke="#f9ffff" d="M47 21h1" />
<path stroke="#eae6f1" d="M48 21h1" />
<path stroke="#e1d5e6" d="M49 21h1" />
<path stroke="#0f1456" d="M50 21h1" />
<path stroke="#060460" d="M51 21h1" />
<path stroke="#1a0856" d="M52 21h1" />
<path stroke="#0d0a62" d="M2 22h1" />
<path stroke="#56387a" d="M3 22h1" />
<path stroke="#f7fcfe" d="M7 22h1" />
<path stroke="#fcfcf9" d="M8 22h1" />
<path stroke="#fbfbf8" d="M9 22h1" />
<path stroke="#fbfcf8" d="M10 22h1" />
<path stroke="#fcfef8" d="M11 22h1" />
<path stroke="#f5f9ff" d="M13 22h1" />
<path stroke="#f8fff6" d="M14 22h1" />
<path stroke="#0d0367" d="M15 22h1" />
<path stroke="#241d71" d="M16 22h1" />
<path stroke="#f8f5ff" d="M17 22h1" />
<path stroke="#f9fdfc" d="M19 22h1" />
<path stroke="#fafbfb" d="M21 22h1" />
<path stroke="#fdfcff" d="M22 22h2" />
<path stroke="#fbfdfd" d="M24 22h1" />
<path stroke="#f9fef7" d="M25 22h1" />
<path stroke="#fcfaf5" d="M26 22h1" />
<path stroke="#f7ffff" d="M27 22h1" />
<path stroke="#b7bcd3" d="M28 22h1" />
<path stroke="#100a42" d="M29 22h1" />
<path stroke="#eee8ff" d="M30 22h1" />
<path stroke="#f6fffc" d="M32 22h1" />
<path stroke="#fbfdfb" d="M33 22h1" />
<path stroke="#f4f4ff" d="M36 22h1" />
<path stroke="#f5f2ff" d="M37 22h1" />
<path stroke="#f9f3ff" d="M38 22h1" />
<path stroke="#fdf9fb" d="M44 22h1" />
<path stroke="#fffdfa" d="M45 22h1" />
<path stroke="#fbfefa" d="M46 22h1" />
<path stroke="#f5fcff" d="M47 22h1" />
<path stroke="#5b5f7a" d="M48 22h1" />
<path stroke="#05053b" d="M49 22h1" />
<path stroke="#060654" d="M50 22h1" />
<path stroke="#060868" d="M51 22h1" />
<path stroke="#2e2a78" d="M52 22h1" />
<path stroke="#05044b" d="M2 23h1" />
<path stroke="#4b3685" d="M3 23h1" />
<path stroke="#bbafca" d="M4 23h1" />
<path stroke="#c8cce3" d="M5 23h1" />
<path stroke="#c4d1f1" d="M6 23h1" />
<path stroke="#c5d0f6" d="M7 23h1" />
<path stroke="#cad2f3" d="M8 23h1" />
<path stroke="#ccd3ed" d="M9 23h1" />
<path stroke="#cbd2ee" d="M10 23h1" />
<path stroke="#c9cff1" d="M11 23h1" />
<path stroke="#cacefa" d="M12 23h1" />
<path stroke="#c9cff2" d="M13 23h1" />
<path stroke="#c2cae1" d="M14 23h1" />
<path stroke="#0a046a" d="M15 23h1" />
<path stroke="#19166c" d="M16 23h1" />
<path stroke="#cdc8fc" d="M17 23h1" />
<path stroke="#d1cef2" d="M18 23h1" />
<path stroke="#d1d0ef" d="M19 23h1" />
<path stroke="#d0cfec" d="M20 23h1" />
<path stroke="#d1cdee" d="M21 23h1" />
<path stroke="#d2cbf2" d="M22 23h1" />
<path stroke="#d3cbf5" d="M23 23h1" />
<path stroke="#d1cbf4" d="M24 23h1" />
<path stroke="#d0ccf2" d="M25 23h1" />
<path stroke="#d8ceeb" d="M26 23h1" />
<path stroke="#d0d0ee" d="M27 23h1" />
<path stroke="#9fa1cd" d="M28 23h1" />
<path stroke="#0d074c" d="M29 23h1" />
<path stroke="#c3c0ef" d="M30 23h1" />
<path stroke="#cdd2ee" d="M31 23h1" />
<path stroke="#cbd2f1" d="M32 23h1" />
<path stroke="#cecff8" d="M33 23h1" />
<path stroke="#d3ccfc" d="M34 23h1" />
<path stroke="#d4cdef" d="M35 23h1" />
<path stroke="#d2caf1" d="M36 23h1" />
<path stroke="#d3caf6" d="M37 23h1" />
<path stroke="#d2cbf3" d="M38 23h1" />
<path stroke="#cecbec" d="M39 23h1" />
<path stroke="#cccee7" d="M40 23h1" />
<path stroke="#ccd2eb" d="M41 23h1" />
<path stroke="#c9d2ee" d="M42 23h1" />
<path stroke="#c9cff4" d="M43 23h1" />
<path stroke="#cecbf5" d="M44 23h1" />
<path stroke="#d4ccef" d="M45 23h1" />
<path stroke="#d2cfea" d="M46 23h1" />
<path stroke="#cbd1f3" d="M47 23h1" />
<path stroke="#374080" d="M48 23h1" />
<path stroke="#020566" d="M49 23h1" />
<path stroke="#121879" d="M50 23h1" />
<path stroke="#12226e" d="M51 23h1" />
<path stroke="#0d0a3e" d="M2 24h1" />
<path stroke="#120c6c" d="M3 24h1" />
<path stroke="#111173" d="M4 24h1" />
<path stroke="#020567" d="M5 24h1" />
<path stroke="#090868" d="M6 24h1" />
<path stroke="#0c0369" d="M7 24h1" />
<path stroke="#0d086f" d="M8 24h1" />
<path stroke="#0b0e6f" d="M9 24h1" />
<path stroke="#0a0d6e" d="M10 24h1" />
<path stroke="#05066f" d="M11 24h1" />
<path stroke="#0a0a71" d="M12 24h1" />
<path stroke="#101269" d="M13 24h1" />
<path stroke="#0a0c5a" d="M14 24h1" />
<path stroke="#140f88" d="M15 24h1" />
<path stroke="#0b0875" d="M16 24h1" />
<path stroke="#0b0b77" d="M17 24h1" />
<path stroke="#070470" d="M18 24h1" />
<path stroke="#0d066e" d="M19 24h1" />
<path stroke="#0d0469" d="M20 24h1" />
<path stroke="#04005f" d="M21 24h1" />
<path stroke="#090866" d="M22 24h1" />
<path stroke="#050764" d="M23 24h1" />
<path stroke="#050766" d="M24 24h1" />
<path stroke="#050664" d="M25 24h1" />
<path stroke="#0a055c" d="M26 24h1" />
<path stroke="#0c0f66" d="M27 24h1" />
<path stroke="#050a6b" d="M28 24h1" />
<path stroke="#060679" d="M29 24h1" />
<path stroke="#0b0c74" d="M30 24h1" />
<path stroke="#080e6b" d="M31 24h1" />
<path stroke="#030f72" d="M32 24h1" />
<path stroke="#020d80" d="M33 24h1" />
<path stroke="#040a85" d="M34 24h1" />
<path stroke="#03016d" d="M35 24h1" />
<path stroke="#080574" d="M36 24h1" />
<path stroke="#070576" d="M37 24h1" />
<path stroke="#060570" d="M38 24h1" />
<path stroke="#010368" d="M39 24h1" />
<path stroke="#000366" d="M40 24h1" />
<path stroke="#00036b" d="M41 24h1" />
<path stroke="#000472" d="M42 24h1" />
<path stroke="#00057a" d="M43 24h1" />
<path stroke="#010178" d="M44 24h1" />
<path stroke="#070173" d="M45 24h1" />
<path stroke="#07006c" d="M46 24h1" />
<path stroke="#04006b" d="M47 24h1" />
<path stroke="#110e7e" d="M48 24h1" />
<path stroke="#03046a" d="M49 24h1" />
<path stroke="#6d6ba2" d="M3 25h1" />
<path stroke="#131b71" d="M4 25h1" />
<path stroke="#202480" d="M5 25h1" />
<path stroke="#2a287a" d="M6 25h1" />
<path stroke="#262070" d="M7 25h1" />
<path stroke="#23207b" d="M8 25h1" />
<path stroke="#1e1f7f" d="M9 25h1" />
<path stroke="#242782" d="M10 25h1" />
<path stroke="#2f3093" d="M11 25h1" />
<path stroke="#30308e" d="M12 25h1" />
<path stroke="#36378a" d="M13 25h1" />
<path stroke="#34348c" d="M14 25h1" />
<path stroke="#3e39a7" d="M15 25h1" />
<path stroke="#3d37a8" d="M16 25h1" />
<path stroke="#3038a3" d="M17 25h1" />
<path stroke="#3037a0" d="M18 25h1" />
<path stroke="#37369e" d="M19 25h1" />
<path stroke="#504cae" d="M20 25h1" />
<path stroke="#696abe" d="M21 25h1" />
<path stroke="#7980c8" d="M22 25h1" />
<path stroke="#7d88c8" d="M23 25h1" />
<path stroke="#8087c8" d="M24 25h1" />
<path stroke="#7376ba" d="M25 25h1" />
<path stroke="#535ca0" d="M26 25h1" />
<path stroke="#2f3e86" d="M27 25h1" />
<path stroke="#253689" d="M28 25h1" />
<path stroke="#111c7e" d="M29 25h1" />
<path stroke="#0e1575" d="M30 25h1" />
<path stroke="#10166e" d="M31 25h1" />
<path stroke="#0e176f" d="M32 25h1" />
<path stroke="#0b167b" d="M33 25h1" />
<path stroke="#0a1486" d="M34 25h1" />
<path stroke="#071486" d="M35 25h1" />
<path stroke="#0c178a" d="M36 25h1" />
<path stroke="#0e1887" d="M37 25h1" />
<path stroke="#0d147b" d="M38 25h1" />
<path stroke="#101674" d="M39 25h1" />
<path stroke="#242984" d="M40 25h1" />
<path stroke="#252787" d="M41 25h1" />
<path stroke="#23228a" d="M42 25h1" />
<path stroke="#2a2f9d" d="M43 25h1" />
<path stroke="#2a37a2" d="M44 25h1" />
<path stroke="#1f2a8d" d="M45 25h1" />
<path stroke="#1e1f86" d="M46 25h1" />
<path stroke="#251b8b" d="M47 25h1" />
<path stroke="#352f92" d="M48 25h1" />
</svg>