<svg xmlns="http://www.w3.org/2000/svg" viewBox="0 -0.5 54 42" shapeRendering="crispEdges">
    <metadata>Made with Pixels to Svg https://codepen.io/shshaw/pen/XbxvNj</metadata>
    <path stroke="#ffcd27" d="M12 0h1M5 3h1M35 3h1M4 4h1M6 4h1M5 5h1M43 6h1M53 6h1M42 7h1M44 7h1M43 8h1M23 20h3M22 21h1M26 21h1M0 22h1M22 22h1M24 22h1M26 22h1M22 23h1M26 23h1M23 24h3M24 25h1M35 25h1M23 26h3M22 27h1M26 27h1M22 28h1M26 28h1M22 29h1M26 29h1M15 30h1M23 30h1M25 30h1M23 31h3M38 31h1M22 32h1M24 32h1M26 32h1M37 32h1M39 32h1M22 33h1M24 33h1M26 33h1M38 33h1M21 34h1M24 34h1M27 34h1M21 35h1M24 35h1M27 35h1M20 36h1M24 36h1M28 36h1M19 37h1M24 37h1M28 37h1M19 38h1M24 38h1M29 38h1M18 39h1M24 39h1M29 39h1M18 40h1M24 40h1M30 40h1M1 41h1M4 41h3M9 41h31M42 41h3M47 41h1" />
</svg>